<svg width="512" height="512" viewBox="0 0 512 512" fill="none" xmlns="http://www.w3.org/2000/svg">
  <rect width="512" height="512" rx="128" fill="url(#gradient)"/>
  <rect width="510" height="510" x="1" y="1" rx="127" stroke="rgba(255,255,255,0.1)" stroke-width="2"/>
  <path d="M256 160c-17.6 0-32 14.4-32 32v64c0 17.6 14.4 32 32 32s32-14.4 32-32v-64c0-17.6-14.4-32-32-32z" fill="white"/>
  <path d="M192 224v16c0 35.3 28.7 64 64 64s64-28.7 64-64v-16h16v16c0 42.9-32.1 78.2-73.6 83.7v20.3h24v16h-60v-16h24v-20.3c-41.5-5.5-73.6-40.8-73.6-83.7v-16h16z" fill="white"/>
  <defs>
    <linearGradient id="gradient" x1="0" y1="0" x2="512" y2="512" gradientUnits="userSpaceOnUse">
      <stop stop-color="#6366f1"/>
      <stop offset="0.5" stop-color="#0ea5e9"/>
      <stop offset="1" stop-color="#06b6d4"/>
    </linearGradient>
  </defs>
</svg>